<?xml version="1.0" encoding="UTF-8"?>
<svg width="51.338" height="74.494" version="1.1" viewBox="-11.88 0 51.338 74.494" xmlns="http://www.w3.org/2000/svg" fill="currentColor">
 <g>
  <path d="m14.09 71.744h-0.2a12.276 12.276 0 0 1-11.954-9.483l-3.845-16.457a12.229 12.229 0 0 1 11.908-15.011h7.924a12.229 12.229 0 0 1 11.917 14.974l-3.79 16.456a12.277 12.277 0 0 1-11.96 9.521z" data-name="Path 1"/>
  <path d="m14.09 74.494h-0.2a14.965 14.965 0 0 1-14.629-11.611l-3.845-16.457a14.979 14.979 0 0 1 14.586-18.387h7.924a14.979 14.979 0 0 1 14.6 18.341l-3.791 16.457a14.955 14.955 0 0 1-14.645 11.657zm-4.088-40.951a9.479 9.479 0 0 0-9.23 11.636l3.844 16.457a9.488 9.488 0 0 0 9.277 7.358h0.2a9.482 9.482 0 0 0 9.283-7.388l3.79-16.456a9.48 9.48 0 0 0-9.237-11.607z" data-name="Path 2"/>
  <path d="m21.979 30.793h-16.033v-6.558a5.174 5.174 0 0 1 5.175-5.174h5.686a5.174 5.174 0 0 1 5.175 5.174z" data-name="Path 3"/>
  <path d="m21.979 33.543h-16.033a2.75 2.75 0 0 1-2.75-2.75v-6.558a7.934 7.934 0 0 1 7.925-7.924h5.686a7.934 7.934 0 0 1 7.925 7.924v6.558a2.75 2.75 0 0 1-2.753 2.75zm-13.286-5.5h10.536v-3.808a2.427 2.427 0 0 0-2.425-2.424h-5.686a2.427 2.427 0 0 0-2.425 2.424z" data-name="Path 4"/>
  <g transform="translate(-185.62 -102.92)" data-name="Group 1">
   <line transform="translate(199.58 111.98)" y1="7.997" data-name="Line 1"/>
   <path d="m199.58 122.73a2.75 2.75 0 0 1-2.75-2.75v-8a2.75 2.75 0 0 1 5.5 0v8a2.75 2.75 0 0 1-2.75 2.75z" data-name="Path 5"/>
  </g>
  <g transform="translate(-185.62 -102.92)" data-name="Group 7">
   <path d="m199.5 114.75a47.7 47.7 0 0 1-24.458-6.744 2.751 2.751 0 0 1 2.819-4.724 42.225 42.225 0 0 0 43.073 0.123 2.7503 2.7503 0 0 1 2.791 4.74 47.72 47.72 0 0 1-24.225 6.605z" data-name="Path 11"/>
  </g>
 </g>
</svg>
