<?xml version="1.0" encoding="UTF-8"?>
<!-- Generator: Adobe Illustrator 16.0.0, SVG Export Plug-In . SVG Version: 6.00 Build 0)  -->
<svg width="35.294" height="34.39" version="1.1" viewBox="0 0 35.294 34.39" xml:space="preserve" xmlns="http://www.w3.org/2000/svg" fill="currentColor">
<g transform="translate(-5.3232 -11.55)">
   <path d="m40.375 43.845-7.507-10.598h1.005c0.488 0 0.937-0.263 1.161-0.698 0.224-0.434 0.187-0.963-0.096-1.361l-6.225-8.788h0.11c0.487 0 0.936-0.262 1.161-0.696 0.224-0.434 0.188-0.952-0.096-1.351l-5.853-8.253c-0.244-0.346-0.642-0.55-1.066-0.55-0.423 0-0.821 0.206-1.066 0.552l-5.854 8.256c-0.283 0.399-0.319 0.911-0.095 1.345 0.225 0.434 0.672 0.696 1.161 0.696h0.112l-6.227 8.792c-0.283 0.398-0.32 0.918-0.095 1.353 0.224 0.435 0.672 0.703 1.161 0.703h1.005l-7.507 10.598c-0.283 0.397-0.319 0.938-0.095 1.372 0.225 0.434 0.673 0.723 1.162 0.723h32.679c0.489 0 0.938-0.289 1.161-0.723 0.225-0.434 0.187-0.975-0.096-1.372z"/>
</g>
</svg>
