<?xml version="1.0" encoding="UTF-8"?>
<!-- Created with Inkscape (http://www.inkscape.org/) -->
<svg id="SVGRoot" width="640px" height="640px" enable-background="new" version="1.1" viewBox="0 0 640 640" xmlns="http://www.w3.org/2000/svg" xmlns:xlink="http://www.w3.org/1999/xlink">
 <defs>
  <clipPath id="patternClipPath">
   <rect id="clipPathRect" width="640" height="640" color="#000000" enable-background="accumulate" fill="#ff0"/>
  </clipPath>
  <marker id="Arrow2Mend" overflow="visible" orient="auto">
   <path transform="scale(.6) rotate(180) translate(0)" d="m8.7186 4.0337-10.926-4.0177 10.926-4.0177c-1.7455 2.3721-1.7354 5.6175-6e-7 8.0354z" fill-rule="evenodd" stroke="#000" stroke-linejoin="round" stroke-width=".625"/>
  </marker>
 </defs>
 <g id="patternLayer">
  <use id="fullPatternClone" transform="translate(1280 -640)" width="640" height="640" xlink:href="#fullPattern"/>
  <use transform="translate(0 640)" width="100%" height="100%" xlink:href="#fullPatternClone"/>
  <use transform="translate(0 1280)" width="100%" height="100%" xlink:href="#fullPatternClone"/>
  <use transform="translate(640)" width="100%" height="100%" xlink:href="#fullPatternClone"/>
  <use transform="translate(640 640)" width="100%" height="100%" xlink:href="#fullPatternClone"/>
  <use transform="translate(640 1280)" width="100%" height="100%" xlink:href="#fullPatternClone"/>
  <use transform="translate(1280)" width="100%" height="100%" xlink:href="#fullPatternClone"/>
  <use transform="translate(1280 640)" width="100%" height="100%" xlink:href="#fullPatternClone"/>
  <use transform="translate(1280 1280)" width="100%" height="100%" xlink:href="#fullPatternClone"/>
  <use id="phantomBottom" width="100%" height="100%" opacity=".3" xlink:href="#designBottom"/>
  <use id="phantomTop" width="100%" height="100%" opacity=".3" xlink:href="#designTop"/>
  <g id="infoGroup" transform="scale(6.4)">
   <rect x="-348.84" y="-380.86" width="526.66" height="360.01" fill="#fff" fill-rule="evenodd" style="paint-order:normal"/>
   <text x="-326.82172" y="-349.80621" fill="#000000" font-family="sans-serif" letter-spacing="0px" word-spacing="0px" style="line-height:0%" xml:space="preserve"><tspan x="-326.82172" y="-349.80621" font-family="sans-serif" font-size="23.669px" font-weight="bold" style="line-height:1.25">Seamless pattern</tspan></text>
   <flowRoot id="infoText" transform="translate(-709.3 -231.7)" fill="#000000" font-family="sans-serif" letter-spacing="0px" word-spacing="0px" style="line-height:0.01%" xml:space="preserve"><flowRegion><rect x="383.76" y="-110.45" width="491.71" height="324.99" ry=".97061"/></flowRegion><flowPara font-size="12.5px" style="line-height:1.25">Use the layers "<flowSpan font-family="Cantarell" font-weight="bold">Pattern Foreground</flowSpan>" and "<flowSpan font-family="Cantarell" font-weight="bold">Pattern Background</flowSpan>" on the pattern page to create your design. The separation into two layers will make it easier for you to create and edit overlapping content like a foreground drawing with a background fill.</flowPara><flowPara font-family="Cantarell" font-size="12.5px" style="line-height:1.25"> </flowPara><flowPara font-family="Cantarell" font-size="12.5px" style="line-height:1.25">The layer named "<flowSpan font-family="Cantarell" font-weight="bold">Pattern</flowSpan>" is for using the seamless pattern, copying it to other documents, adding opacity etc. </flowPara><flowPara font-family="Cantarell" font-size="12.5px" style="line-height:1.25">Select the group on the page, and use <flowSpan font-family="Cantarell" font-weight="bold">Object-&gt;Pattern-&gt;Objects to Pattern</flowSpan> to convert your creation into a fill pattern.</flowPara><flowPara font-family="Cantarell" font-size="12.5px" style="line-height:1.25"> </flowPara><flowPara font-family="Cantarell" font-size="12.5px" style="line-height:1.25">The layer "<flowSpan font-family="Cantarell" font-weight="bold">Preview Background</flowSpan>" provides an easy way to preview your creation if it contains transparency.</flowPara><flowPara font-family="Cantarell" font-size="12.5px" style="line-height:1.25">Changing this layer's visibility will not alter the pattern.</flowPara><flowPara font-family="Cantarell" font-size="12.5px" style="line-height:1.25"> </flowPara><flowPara font-family="Cantarell" font-size="12.5px" style="line-height:1.25">If an object is moved outside the pattern/page limits, it will be difficult to select it. </flowPara><flowPara font-family="Cantarell" font-size="12.5px" style="line-height:1.25">To move it back onto the page, select the object using the rubberband selection (click and drag a selection box) with the selection tool.</flowPara><flowPara font-family="Cantarell" font-size="12.5px" style="line-height:1.25">Then move it back onto the page, using the arrow keys or the "Align and Distribute" dialog (Shift+Ctrl+A).</flowPara></flowRoot>
   <path d="m-354.49-359.49h-6.1704v411.01h229.61" color="#000000" enable-background="accumulate" fill="none" marker-end="url(#Arrow2Mend)" stroke="#000" stroke-width="3.7795" style="text-decoration-line:none"/>
  </g>
  <g id="textPreview" transform="matrix(6.4 0 0 6.4 8192 0)">
   <path d="m-29.565 100v-7.167h2.0073v4.5113h1.9176v-4.2422h2.0073v4.2422h4.3665v2.6558z"/>
   <path d="m-22.743 87.818q0 0.77256 0.26214 1.1658 0.26214 0.38628 0.77256 0.38628 0.46906 0 0.73808-0.3104 0.26214-0.31731 0.26214-0.87604 0-0.6967-0.49667-1.1727-0.50355-0.47596-1.2555-0.47596h-0.28278zm-0.93124-3.7732h4.4078v2.4902h-1.145q0.70359 0.49666 1.0277 1.1175 0.31735 0.62082 0.31735 1.5107 0 1.2002-0.69671 1.9521-0.70359 0.74498-1.821 0.74498-1.3589 0-1.9936-0.93123-0.63462-0.93812-0.63462-2.9385v-1.4555h-0.19316q-0.58628 0-0.8553 0.46216-0.2759 0.46217-0.2759 1.4417 0 0.79327 0.15859 1.4762 0.15868 0.6829 0.47603 1.2692h-1.8832q-0.19317-0.79327-0.28966-1.5934-0.10355-0.80016-0.10355-1.6003 0-2.0901 0.82778-3.0144 0.8209-0.93123 2.6764-0.93123z"/>
   <path d="m-26.751 75.726h1.8762q-0.33111 0.79327-0.49658 1.5314-0.16556 0.73808-0.16556 1.3934 0 0.7036 0.17932 1.0485 0.17243 0.338 0.53803 0.338 0.29663 0 0.45531-0.25522 0.15858-0.26212 0.23453-0.93122l0.0624-0.43458q0.2415-1.8969 0.79329-2.5522 0.55189-0.65531 1.7314-0.65531 1.2347 0 1.8555 0.91054 0.62086 0.91053 0.62086 2.7178 0 0.76568-0.12419 1.5865-0.11722 0.81396-0.35872 1.6762h-1.8762q0.35872-0.73809 0.53803-1.5107 0.17941-0.77947 0.17941-1.5796 0-0.72429-0.20005-1.0899-0.20004-0.3656-0.59325-0.3656-0.33111 0-0.4897 0.25524-0.16555 0.24832-0.25525 1.0002l-0.055 0.43458q-0.20692 1.6486-0.76568 2.3108-0.55868 0.66221-1.6968 0.66221-1.2279 0-1.8211-0.84156-0.59325-0.84155-0.59325-2.5798 0-0.6829 0.10355-1.4348 0.10346-0.75188 0.32415-1.6348z"/>
   <path d="m-29.186 70.677h2.1935v-2.5454h1.7659v2.5454h3.2765q0.53804 0 0.7312-0.21383 0.1862-0.21384 0.1862-0.84846v-1.2692h1.7659v2.1177q0 1.4624-0.60701 2.0763-0.61398 0.60703-2.0763 0.60703h-3.2765v1.2278h-1.7659v-1.2278h-2.1935z"/>
   <path d="m-20.384 59.233h4.056v2.4695h-10.664v-2.4695h1.1313q-0.67598-0.51044-0.99334-1.1313-0.32423-0.62081-0.32423-1.4279 0-1.4279 1.1383-2.3453 1.1312-0.91744 2.9178-0.91744 1.7865 0 2.9247 0.91744 1.1313 0.91743 1.1313 2.3453 0 0.80707-0.31735 1.4279-0.32414 0.62083-1.0001 1.1313zm-5.0011-1.6417q0 0.79327 0.58637 1.2209 0.5794 0.42078 1.6762 0.42078 1.0967 0 1.6831-0.42078 0.5794-0.42766 0.5794-1.2209t-0.5794-1.2072q-0.5794-0.42078-1.6831-0.42078t-1.6832 0.42078q-0.5794 0.41388-0.5794 1.2072z"/>
   <path d="m-24.889 45.837q-0.1518 0.3242-0.22077 0.6484-0.0761 0.31731-0.0761 0.64151 0 0.95193 0.61389 1.4693 0.6071 0.51045 1.7453 0.51045h3.5593v2.4695h-7.7257v-2.4695h1.2692q-0.7588-0.47595-1.1037-1.0899-0.35185-0.62081-0.35185-1.4831 0-0.12416 0.0138-0.26902 9e-3 -0.14486 0.0413-0.42078l2.235-7e-3z"/>
   <path d="m-23.15 36.883h0.7036v5.7736q0.86914-0.0897 1.3037-0.62772 0.43457-0.53804 0.43457-1.5038 0-0.77948-0.22765-1.5934-0.23453-0.82086-0.70359-1.6831h1.9038q0.33111 0.87604 0.49667 1.7521 0.17243 0.87604 0.17243 1.7521 0 2.097-1.0623 3.2627-1.0692 1.1589-2.9937 1.1589-1.8901 0-2.973-1.1382-1.083-1.1451-1.083-3.1455 0-1.8211 1.0968-2.911 1.0968-1.0968 2.9317-1.0968zm-0.8209 2.5385q-0.70359 0-1.1312 0.41388-0.43458 0.40698-0.43458 1.0692 0 0.71739 0.40697 1.1658 0.40009 0.44836 1.1588 0.55873z"/>
   <path d="m-26.992 35.994v-2.4695l5.3391-1.9245-5.3391-1.9176v-2.4764l7.7257 3.042v2.7109z"/>
   <path d="m-26.992 25.805v-2.4695h7.7257v2.4695zm-3.0075 0v-2.4695h2.0142v2.4695z"/>
   <path d="m-23.15 13.237h0.7036v5.7736q0.86914-0.0897 1.3037-0.62772 0.43457-0.53805 0.43457-1.5038 0-0.77947-0.22765-1.5934-0.23453-0.82085-0.70359-1.6831h1.9038q0.33111 0.87604 0.49667 1.7521 0.17243 0.87605 0.17243 1.7521 0 2.097-1.0623 3.2628-1.0692 1.1588-2.9937 1.1588-1.8901 0-2.973-1.1382-1.083-1.1451-1.083-3.1455 0-1.8211 1.0968-2.9109 1.0968-1.0968 2.9317-1.0968zm-0.8209 2.5384q-0.70359 0-1.1312 0.41389-0.43458 0.40697-0.43458 1.0692 0 0.71738 0.40697 1.1658 0.40009 0.44837 1.1588 0.55874z"/>
   <path d="m-26.992 12.065v-2.4005l5.3252-1.2968-5.3252-1.3037v-2.0625l5.2701-1.2968-5.2701-1.3037v-2.4005l7.7257 2.0349v2.6971l-5.3115 1.3037 5.3115 1.2968v2.6971z"/>
  </g>
  <g id="fullPattern" clip-path="url(#patternClipPath)">
   <g id="designBottom" transform="scale(6.4)">
    <rect width="100" height="100" color="#000000" enable-background="accumulate" fill="url(#radialGradient3070)"/>
   </g>
   <g id="designTop" transform="scale(6.4)">
    <g id="g53" transform="matrix(.0068252 0 0 .0068252 36.407 -13.191)" fill="#fff">
     <path d="m3975.3 4907.2c-33.01-104.3-58.08-153.45-128.2-223.84-55.955-58.138-107.55 56.371-103.48 75.435-26.037-19.441-22.349 9.616-63.207-52.498-4.24-6.942-11.699-12.546-11.875-21.278-5.789-44.839 9.358-101.5-60.156-126.96-173.37-63.249-92.005-299.16-92.699-534.88 57.064-209.16-366.71 30.02-427.16 29.07 0.595-12.737 0.74-25.47-0.54-38.132-4.824-131.77 36.568-196.72 28.409-355.36l-17.302-138.64c22.433 6.037 41.281 21.604 64.518 24.967 78.626 13.802 197.08-47.861 234.15-78.176 52.431-52.972 25.265-20.05 55.075-72.532 5.301-9.961-1.029-24.111-12.829-24.613-21.75 1.922-72.694 16.883-138.99-3.933-156.57-53.537-108.46-56.89-218.74 1.627-104.01-360.64-682.49-342.21-958.11-729.76 3.875-156.25-96.289-353.01-226.23-320.36-67.234-119.12-73.447-267.84-72.409-270.93 6.841-21.674 16.647-42.315 22.963-64.148 1.541-0.01 4.624-0.019 6.145-0.026 10.312 119.03-5.268 150.01 26.215 148.44 74.775-52.993 118.2-381.27 23.712-674.72-1.846-17.635 10.004-34.032 5.698-51.693 71.118 11.889 36.953 30.358 145.5 40.462 35.286 2.723 68.957-11.3 99.199-28.055 73.609-43.107 71.006-65.412 88.375-79.974 26.878-24.977 59.722-42.582 85.863-68.505 0.137-5.639 0.305-11.306 0.5-16.913-17.309-24.119-163.72-139.55-344.54-97.994-119.78 22.563-117.75 11.227-146.86-10.202-3.55-3.776-6.699-7.889-9.436-12.317 275.23-29.416 245.59 53.473 526.48-88.31 45.183-24.798 141.22-62.299 275.45-243.4 204.64-275.48 182.01-236.96 220.59-317.4 19.383-39.868 51.236-122.21 12.491-142.52-56.485-38.095-194.62 91.304-251.78 98.543-24.241-104.11-17.847-204.69-93.529-269.57-37.846-35.743-74.869-33.723-105.74 21.303-47.002 77.128 49.833 200.5 38.126 281.87-3.601 17.733-13.643 15.93-27.547 4.581-20.879-17.058-84.272-47.186-142.83-57.89-100.61-18.404-117.79 18.519-100.06 55.852 44.745 94.328 153.8 71.223 237.23 161.26 185.52 189.21-359.5 518.34-660.58 279.09 140.56-151.24 151.35-211.92 134.38-331.5-12.066-77.678-49.042-130.04-48.694-177.23 9.416-67.913 76.242-156.9 76.428-257.34-20.446-108.49-173.12 48.458-179.45 53.02-6.415-24.609-4.086-44.88-40.491-109.56-26.847-44.394-84.721-113.2-127.56-84.863-55.397 37.62-18.052 197.17-3.509 266.39-54.086-7.32-174.96-5.836-220.73 22.9-12.506 7.698-22.911 23.695-16.543 38.486 7.771 19.863 27.219 31.439 44.504 42.199 76.216 47.019 207.94 31.997 310.07 74.467 28.992 12.199 46.458 39.826 61.821 65.798 50.099 87.442 33.915 142.29-23.89 227.66-17.99 23.767-36.893 47.301-60.626 65.594-3.945 3.504-7.092-1.799-9.74-4.173-52.483-59.578-50.468-52.513-98.364-146.3-10.038-18.582-19.075-38.579-35.354-52.656-19.425-17.379-67.763-24.6-80.201 8.956-19.818 51.18 5.609 134.79-29.374 165.51-41.077 33.857-122.57-43.354-177.02 34.283-62.892-35.697-94.183-162.88-148.82-219.02-48.471-51.523-129.34 14.785-50.405 167.47 8.574 17.22 23.816 32.921 23.042 53.347-3.027 45.432-134.63-7.413-180.29 43.955-12.957 15.157-11.777 38.953 0.428 54.218 82.67 107.46 467.41 102.3 475.96 102.88-0.467 6.488-7.59 6.469-12.235 8.538-117.7 41.167-111.4 132.47-178.03 148.23-55.037 9.835-137.1 35.717-188.45 53.236-33.32 12.034-114.76 37.588-155.18 100.05-19.964 31.012-20.969 73.243-1.799 104.81 18.155 15.633 16.213-6.668 34.428 51.373 16.018 49.319 40.996 53.273 60.942 68.919 11.422 8.444 37.675 38.899 75.164 40.468 93.883 3.859 164.02 5.318 217.7 5.781-1.229 11.984-2.099 23.991-2.599 36.031-25.003 145.12-89.239 156.46-228.26 255.9-50.249 35.768-14.003 20.174-204.99 143.52-22.011 13.98-40.475 32.688-57.508 52.225-44.146 51.561-56.344 84.225-58.626 161.33-0.645 9.864-1.208 19.97 2.061 29.52 4.745 2.507 9.499 5.054 14.274 7.593 20.058-9.035 32.421-28.966 52.103-38.435-8.588 26.727-13.828 39.251-33.056 201.33-1.286 8.74 6.555 13.727 13.067 17.497-36.911 93.659-52.922 228.93-13.662 325.9-173.17 41.151-86.453-36.96-424.48 306.74-102.05-14.44-141.42-18.817-177.37-6.514-17.48 5.704-108.09 117.53-81.31 219.5 20.958 82.652 11.749 86.483 43.437 139.81 6.467 8.781 3.747 20.203 5.414 30.347 3.595 45.753 34.475 82.133 52.267 122.79 0.647 6.987-19.575 37.059 58.925 130.69-18.923 26.416 108.02 273.11 155.84 334.99 1.219 0.913 3.646 2.749 4.856 3.652l-7.044 1.145c25.216 26.346 181.08 101.99 255.66 98.162 2.163-10.081 8.748-18.426 11.107-28.379 18.328-68.382 4.02-224.3-13.292-271.25-18.003-54.371-102.42-34.105-123.13-26.593-0.311-1.972-0.973-5.938-1.295-7.91-1.811 0-5.404 0.021-7.186 0.049 0.013-12.967-12.674-20.445-14.082-32.852 18.372 0.261 36.647-2.132 54.908-3.866 2.687-3.889 5.401-7.676 8.172-11.382-0.308-41.316-96.351-103.08-141.5-112.72l-12.891-5.643c58.775-120.88 39.735-166.8 39.417-178.88 2.001-4.583 6.389-8.742 5.065-14.102-3.823-14.322-44.055-22.391-51.132-22.618 8.909-38.493-8.216-75.893-8.719-114.23 12.306 10.646 35.679 47.064 60.336 40.43 3.463-4.042 1.528-8.792 0.432-13.223 34.24-46.383 36.235-39.039 37.935-71.97 51.79 11.144 69.337 12.68 107.92 15.196 278.72 47.436 233.8 122.01 393.1 111 24.461-5.91 46.887-20.596 60.786-41.514 0.862-0.381 0.35 0.021 11.02-13.854 136.83 125.37 331.04 228.62 478.4 292.29 99.077 45.656 510.99 136.05 514.19 136.72 65.026 121.87 49.805 84.11 121.04 185.87 28.818 38.939 71.825 131.77 199.94 249.27 235.48 212.77 319.6 116.12 487.06 101.34 21.101 19.528 51.747 20.188 78.794 21.603 50.884 37.178 113.82 149.04 138.45 207.58 13.952 32.576 14.877 87.452 103.56 218.39 14.135 21.306 31.605 40.228 45.277 61.898 29.304 41.658 56.891 85.488 95.085 119.86 47.758 55.03 184.49 78.246 208.76 59.502 1.09-2.844 2.012-5.744 2.785-8.698 3.067 1.568 6.135 3.126 9.202 4.694 27.525 38.174 91.459 58.928 144.36 51.73 13.196-1.38 23.959-10.45 37.28-11.676 2.337-9.324 6.19-18.516 5.909-28.231-1.489-19.824-4.802-53.61-15.836-72.597-0.354-3.604-0.719-7.22-1.073-10.824 48.855 23.619 98.928 40.177 127.66 27.012 0.771-1.734 2.351-5.121 3.151-6.844 96.389 32.644 116.85 76.424 188.51 53.932 22.329-33.32 24.149-77.723 11.536-115.07zm-3210.8-1802.2c-47.995-5.568-174.48-8.354-196.77-11.554-0.065-0.713-0.215-2.149-0.31-2.863 24.688-15.258 51.205-27.33 78.308-37.55 32.1-16.93 84.477-11.329 135.05 54.767-2.978 7.05-11.352-2.177-16.282-2.8zm2563.6 1627.7c6.55-24.807 29.31-47.906-10.081-95.55-23.21-26.496-53.51-45.365-77.613-70.902-30.487-31.293-143.42-185.76-154.76-267.45 15.238-8.421 168.58-52.295 202.39-29.595 32.749 39.567 15.636 182.61 43.92 283.56 73.084 219.39 94.772 192.55 109.34 228.76-19.265-7.075-82.883-9.958-113.2-48.829z" fill="#fff"/>
    </g>
    <use transform="translate(-49.749 45.88)" xlink:href="#g53"/>
   </g>
   <g id="designBottomGenerator">
    <use transform="translate(-640 -640)" width="100%" height="100%" xlink:href="#designBottom"/>
    <use transform="translate(0 -640)" width="100%" height="100%" xlink:href="#designBottom"/>
    <use transform="translate(640 -640)" width="100%" height="100%" xlink:href="#designBottom"/>
    <use transform="translate(-640)" width="100%" height="100%" xlink:href="#designBottom"/>
    <use width="100%" height="100%" xlink:href="#designBottom"/>
    <use transform="translate(640)" width="100%" height="100%" xlink:href="#designBottom"/>
    <use transform="translate(-640 640)" width="100%" height="100%" xlink:href="#designBottom"/>
    <use transform="translate(0 640)" width="100%" height="100%" xlink:href="#designBottom"/>
    <use transform="translate(640 640)" width="100%" height="100%" xlink:href="#designBottom"/>
   </g>
   <g id="designTopGenerator">
    <use transform="translate(-640 -640)" width="100%" height="100%" xlink:href="#designTop"/>
    <use transform="translate(0 -640)" width="100%" height="100%" xlink:href="#designTop"/>
    <use transform="translate(640 -640)" width="100%" height="100%" xlink:href="#designTop"/>
    <use transform="translate(-640)" width="100%" height="100%" xlink:href="#designTop"/>
    <use width="100%" height="100%" xlink:href="#designTop"/>
    <use transform="translate(640)" width="100%" height="100%" xlink:href="#designTop"/>
    <use transform="translate(-640 640)" width="100%" height="100%" xlink:href="#designTop"/>
    <use transform="translate(0 640)" width="100%" height="100%" xlink:href="#designTop"/>
    <use transform="translate(640 640)" width="100%" height="100%" xlink:href="#designTop"/>
   </g>
  </g>
 </g>
</svg>
