<?xml version="1.0" encoding="UTF-8" standalone="no"?>
<!-- Created with Inkscape (http://www.inkscape.org/) -->

<svg
   width="640px"
   height="640px"
   viewBox="0 0 640 640"
   id="SVGRoot"
   version="1.1"
   enable-background="new"
   inkscape:version="1.2-dev (0f7da565d9, 2021-10-29)"
   sodipodi:docname="reindeer-bg.svg"
   inkscape:dataloss="true"
   xmlns:inkscape="http://www.inkscape.org/namespaces/inkscape"
   xmlns:sodipodi="http://sodipodi.sourceforge.net/DTD/sodipodi-0.dtd"
   xmlns:xlink="http://www.w3.org/1999/xlink"
   xmlns="http://www.w3.org/2000/svg"
   xmlns:svg="http://www.w3.org/2000/svg">
  <defs
     id="defs4787">
    <clipPath
       clipPathUnits="userSpaceOnUse"
       id="patternClipPath">
      <rect
         y="0"
         x="0"
         height="640"
         width="640"
         id="clipPathRect"
         style="color:#000000;display:inline;overflow:visible;visibility:visible;opacity:1;fill:#ffff00;fill-opacity:1;fill-rule:nonzero;stroke:none;stroke-width:20;stroke-linecap:square;stroke-linejoin:miter;stroke-miterlimit:4;stroke-dasharray:none;stroke-dashoffset:1.09889996;stroke-opacity:1;marker:none;enable-background:accumulate" />
    </clipPath>
    <marker
       inkscape:stockid="Arrow2Mend"
       orient="auto"
       refY="0.0"
       refX="0.0"
       id="Arrow2Mend"
       style="overflow:visible;"
       inkscape:isstock="true">
      <path
         id="path19572"
         style="fill-rule:evenodd;stroke-width:0.625;stroke-linejoin:round;stroke:#000000;stroke-opacity:1;fill:#000000;fill-opacity:1"
         d="M 8.7185878,4.0337352 L -2.2072895,0.016013256 L 8.7185884,-4.0017078 C 6.9730900,-1.6296469 6.9831476,1.6157441 8.7185878,4.0337352 z "
         transform="scale(0.6) rotate(180) translate(0,0)" />
    </marker>
  </defs>
  <sodipodi:namedview
     id="base"
     pagecolor="#ffffff"
     bordercolor="#666666"
     borderopacity="1.0"
     inkscape:pageopacity="0"
     inkscape:pageshadow="2"
     inkscape:zoom="0.64141414"
     inkscape:cx="265.03937"
     inkscape:cy="406.13386"
     inkscape:document-units="px"
     inkscape:current-layer="designBottom"
     showgrid="false"
     inkscape:pagecheckerboard="true"
     inkscape:window-width="1920"
     inkscape:window-height="1009"
     inkscape:window-x="0"
     inkscape:window-y="0"
     inkscape:window-maximized="1"
     inkscape:blackoutopacity="0.0"
     showborder="true"
     inkscape:showpageshadow="true"
     borderlayer="false"
     inkscape:deskcolor="#d1d1d1" />
  <g
     inkscape:groupmode="layer"
     id="patternLayer"
     inkscape:label="Pattern"
     style="display:inline">
    <g
       id="g8891"
       sodipodi:insensitive="true">
      <use
         x="0"
         y="0"
         xlink:href="#fullPattern"
         id="fullPatternClone"
         transform="translate(1280, -640)"
         width="640"
         height="640"
         inkscape:tile-cx="320.0"
         inkscape:tile-cy="320.0"
         inkscape:tile-w="640"
         inkscape:tile-h="640"
         inkscape:tile-x0="640"
         inkscape:tile-y0="640" />
      <use
         height="100%"
         width="100%"
         x="0"
         y="0"
         inkscape:tiled-clone-of="#fullPatternClone"
         xlink:href="#fullPatternClone"
         transform="translate(0, 640)"
         id="clonePreview1" />
      <use
         height="100%"
         width="100%"
         x="0"
         y="0"
         inkscape:tiled-clone-of="#fullPatternClone"
         xlink:href="#fullPatternClone"
         transform="translate(0, 1280)"
         id="clonePreview2" />
      <use
         height="100%"
         width="100%"
         x="0"
         y="0"
         inkscape:tiled-clone-of="#fullPatternClone"
         xlink:href="#fullPatternClone"
         transform="translate(640, 0)"
         id="clonePreview3" />
      <use
         height="100%"
         width="100%"
         x="0"
         y="0"
         inkscape:tiled-clone-of="#fullPatternClone"
         xlink:href="#fullPatternClone"
         transform="translate(640, 640)"
         id="clonePreview4" />
      <use
         height="100%"
         width="100%"
         x="0"
         y="0"
         inkscape:tiled-clone-of="#fullPatternClone"
         xlink:href="#fullPatternClone"
         transform="translate(640, 1280)"
         id="clonePreview5" />
      <use
         height="100%"
         width="100%"
         x="0"
         y="0"
         inkscape:tiled-clone-of="#fullPatternClone"
         xlink:href="#fullPatternClone"
         transform="translate(1280, 0)"
         id="clonePreview6" />
      <use
         height="100%"
         width="100%"
         x="0"
         y="0"
         inkscape:tiled-clone-of="#fullPatternClone"
         xlink:href="#fullPatternClone"
         transform="translate(1280, 640)"
         id="clonePreview7" />
      <use
         height="100%"
         width="100%"
         x="0"
         y="0"
         inkscape:tiled-clone-of="#fullPatternClone"
         xlink:href="#fullPatternClone"
         transform="translate(1280, 1280)"
         id="clonePreview8" />
    </g>
    <use
       style="opacity:0.3"
       height="100%"
       width="100%"
       id="phantomBottom"
       xlink:href="#designBottom"
       y="0"
       x="0"
       sodipodi:insensitive="true" />
    <use
       style="opacity:0.3"
       height="100%"
       width="100%"
       id="phantomTop"
       xlink:href="#designTop"
       y="0"
       x="0"
       sodipodi:insensitive="true" />
    <g
       id="infoGroup"
       sodipodi:insensitive="true"
       transform="scale(6.4, 6.4)">
      <rect
         style="opacity:1;fill:#ffffff;fill-opacity:1;fill-rule:evenodd;stroke:none;stroke-width:76.99082184;stroke-linecap:round;stroke-linejoin:round;stroke-miterlimit:4;stroke-dasharray:none;stroke-dashoffset:0;stroke-opacity:1;paint-order:normal"
         id="rect4130"
         width="526.66248"
         height="360.00635"
         x="-348.83969"
         y="-380.86212" />
      <text
         xml:space="preserve"
         style="font-style:normal;font-variant:normal;font-weight:normal;font-stretch:normal;line-height:0%;font-family:sans-serif;-inkscape-font-specification:Verdana;letter-spacing:0px;word-spacing:0px;fill:#000000;fill-opacity:1;stroke:none"
         x="-326.82172"
         y="-349.80621"
         id="text8664"><tspan
           style="font-style:normal;font-variant:normal;font-weight:bold;font-stretch:normal;font-size:23.6686px;line-height:1.25;font-family:sans-serif;-inkscape-font-specification:'sans-serif Bold'"
           sodipodi:role="line"
           id="tspan8666"
           x="-326.82172"
           y="-349.80621">Seamless pattern</tspan></text>
      <flowRoot
         xml:space="preserve"
         id="infoText"
         style="font-style:normal;font-variant:normal;font-weight:normal;font-stretch:normal;line-height:0.01%;font-family:sans-serif;-inkscape-font-specification:sans-serif;letter-spacing:0px;word-spacing:0px;fill:#000000;fill-opacity:1;stroke:none"
         transform="translate(-709.3014,-231.7039)"><flowRegion
           id="flowRegion11597"><rect
             ry="0.97061312"
             id="rect11599"
             width="491.7114"
             height="324.99371"
             x="383.75671"
             y="-110.4523"
             style="font-style:normal;font-variant:normal;font-weight:normal;font-stretch:normal;font-size:13.75px;font-family:sans-serif;-inkscape-font-specification:sans-serif" /></flowRegion><flowPara
           style="font-style:normal;font-variant:normal;font-weight:normal;font-stretch:normal;font-size:12.5px;line-height:1.25;font-family:Cantarell;-inkscape-font-specification:Cantarell"
           id="flowPara6756">Use the layers &quot;<flowSpan
   style="font-style:normal;font-variant:normal;font-weight:bold;font-stretch:normal;font-family:Cantarell;-inkscape-font-specification:'Cantarell Bold'"
   id="flowSpan7476">Pattern Foreground</flowSpan>&quot; and &quot;<flowSpan
   style="font-style:normal;font-variant:normal;font-weight:bold;font-stretch:normal;font-family:Cantarell;-inkscape-font-specification:'Cantarell Bold'"
   id="flowSpan7478">Pattern Background</flowSpan>&quot; on the pattern page to create your design. The separation into two layers will make it easier for you to create and edit overlapping content like a foreground drawing with a background fill.</flowPara><flowPara
           style="font-style:normal;font-variant:normal;font-weight:normal;font-stretch:normal;font-size:12.5px;line-height:1.25;font-family:Cantarell;-inkscape-font-specification:Cantarell"
           id="flowPara7456"> </flowPara><flowPara
           style="font-style:normal;font-variant:normal;font-weight:normal;font-stretch:normal;font-size:12.5px;line-height:1.25;font-family:Cantarell;-inkscape-font-specification:Cantarell"
           id="flowPara7458">The layer named &quot;<flowSpan
   style="font-style:normal;font-variant:normal;font-weight:bold;font-stretch:normal;font-family:Cantarell;-inkscape-font-specification:'Cantarell Bold'"
   id="flowSpan7480">Pattern</flowSpan>&quot; is for using the seamless pattern, copying it to other documents, adding opacity etc. </flowPara><flowPara
           style="font-style:normal;font-variant:normal;font-weight:normal;font-stretch:normal;font-size:12.5px;line-height:1.25;font-family:Cantarell;-inkscape-font-specification:Cantarell"
           id="flowPara7460">Select the group on the page, and use <flowSpan
   style="font-style:normal;font-variant:normal;font-weight:bold;font-stretch:normal;font-family:Cantarell;-inkscape-font-specification:'Cantarell Bold'"
   id="flowSpan7484">Object-&gt;Pattern-&gt;Objects to Pattern</flowSpan> to convert your creation into a fill pattern.</flowPara><flowPara
           style="font-style:normal;font-variant:normal;font-weight:normal;font-stretch:normal;font-size:12.5px;line-height:1.25;font-family:Cantarell;-inkscape-font-specification:Cantarell"
           id="flowPara7462"> </flowPara><flowPara
           style="font-style:normal;font-variant:normal;font-weight:normal;font-stretch:normal;font-size:12.5px;line-height:1.25;font-family:Cantarell;-inkscape-font-specification:Cantarell"
           id="flowPara7464">The layer &quot;<flowSpan
   style="font-style:normal;font-variant:normal;font-weight:bold;font-stretch:normal;font-family:Cantarell;-inkscape-font-specification:'Cantarell Bold'"
   id="flowSpan7482">Preview Background</flowSpan>&quot; provides an easy way to preview your creation if it contains transparency.</flowPara><flowPara
           style="font-style:normal;font-variant:normal;font-weight:normal;font-stretch:normal;font-size:12.5px;line-height:1.25;font-family:Cantarell;-inkscape-font-specification:Cantarell"
           id="flowPara7466">Changing this layer's visibility will not alter the pattern.</flowPara><flowPara
           style="font-style:normal;font-variant:normal;font-weight:normal;font-stretch:normal;font-size:12.5px;line-height:1.25;font-family:Cantarell;-inkscape-font-specification:Cantarell"
           id="flowPara7468"> </flowPara><flowPara
           style="font-style:normal;font-variant:normal;font-weight:normal;font-stretch:normal;font-size:12.5px;line-height:1.25;font-family:Cantarell;-inkscape-font-specification:Cantarell"
           id="flowPara7470">If an object is moved outside the pattern/page limits, it will be difficult to select it. </flowPara><flowPara
           style="font-style:normal;font-variant:normal;font-weight:normal;font-stretch:normal;font-size:12.5px;line-height:1.25;font-family:Cantarell;-inkscape-font-specification:Cantarell"
           id="flowPara7472">To move it back onto the page, select the object using the rubberband selection (click and drag a selection box) with the selection tool.</flowPara><flowPara
           style="font-style:normal;font-variant:normal;font-weight:normal;font-stretch:normal;font-size:12.5px;line-height:1.25;font-family:Cantarell;-inkscape-font-specification:Cantarell"
           id="flowPara7474">Then move it back onto the page, using the arrow keys or the &quot;Align and Distribute&quot; dialog (Shift+Ctrl+A).</flowPara></flowRoot>
      <path
         sodipodi:nodetypes="cccc"
         inkscape:connector-curvature="0"
         id="path19539"
         d="m -354.4906,-359.49 h -6.1704 V 51.51566 h 229.6052"
         style="color:#000000;text-decoration:none;text-decoration-line:none;display:inline;overflow:visible;visibility:visible;fill:none;stroke:#000000;stroke-width:3.77952766;stroke-linecap:butt;stroke-linejoin:miter;stroke-miterlimit:4;stroke-dasharray:none;stroke-dashoffset:0;stroke-opacity:1;marker:none;marker-end:url(#Arrow2Mend);enable-background:accumulate" />
    </g>
    <g
       id="textPreview"
       sodipodi:insensitive="true"
       transform="matrix(6.4 0 0 6.4 8192 0)">
      <path
         d="m -29.56541,100 v -7.16704 h 2.00731 v 4.51126 h 1.91761 v -4.24223 h 2.00731 v 4.24223 h 4.36647 V 100 Z"
         style="font-style:normal;font-variant:normal;font-weight:bold;font-stretch:normal;font-size:medium;line-height:125%;font-family:sans-serif;-inkscape-font-specification:'sans-serif Bold';letter-spacing:0px;word-spacing:0px;fill:#000000;fill-opacity:1;stroke:none;stroke-width:1px;stroke-linecap:butt;stroke-linejoin:miter;stroke-opacity:1"
         id="path9845"
         inkscape:connector-curvature="0" />
      <path
         d="m -22.7433,87.81814 q 0,0.77256 0.26214,1.16575 0.26214,0.38628 0.77256,0.38628 0.46906,0 0.73808,-0.3104 0.26214,-0.31731 0.26214,-0.87604 0,-0.6967 -0.49667,-1.17266 -0.50355,-0.47596 -1.25547,-0.47596 h -0.28278 z m -0.93124,-3.7732 h 4.40783 v 2.49017 h -1.14504 q 0.70359,0.49666 1.02773,1.11747 0.31735,0.62082 0.31735,1.51066 0,1.20024 -0.69671,1.95213 -0.70359,0.74498 -1.82103,0.74498 -1.35893,0 -1.99355,-0.93123 -0.63462,-0.93812 -0.63462,-2.93854 v -1.45547 h -0.19316 q -0.58628,0 -0.8553,0.46216 -0.2759,0.46217 -0.2759,1.44168 0,0.79327 0.15859,1.47617 0.15868,0.6829 0.47603,1.26923 h -1.88321 q -0.19317,-0.79327 -0.28966,-1.59344 -0.10355,-0.80016 -0.10355,-1.60033 0,-2.09008 0.82778,-3.01441 0.8209,-0.93123 2.67642,-0.93123 z"
         style="font-style:normal;font-variant:normal;font-weight:bold;font-stretch:normal;font-size:medium;line-height:125%;font-family:sans-serif;-inkscape-font-specification:'sans-serif Bold';letter-spacing:0px;word-spacing:0px;fill:#000000;fill-opacity:1;stroke:none;stroke-width:1px;stroke-linecap:butt;stroke-linejoin:miter;stroke-opacity:1"
         id="path9847"
         inkscape:connector-curvature="0" />
      <path
         d="m -26.75105,75.72598 h 1.87625 q -0.33111,0.79327 -0.49658,1.53136 -0.16556,0.73808 -0.16556,1.39338 0,0.7036 0.17932,1.04849 0.17243,0.338 0.53803,0.338 0.29663,0 0.45531,-0.25522 0.15858,-0.26212 0.23453,-0.93122 l 0.0624,-0.43458 q 0.2415,-1.89694 0.79329,-2.55225 0.55189,-0.65531 1.73142,-0.65531 1.23474,0 1.85551,0.91054 0.62086,0.91053 0.62086,2.7178 0,0.76568 -0.12419,1.58654 -0.11722,0.81396 -0.35872,1.67621 h -1.87624 q 0.35872,-0.73809 0.53803,-1.51067 0.17941,-0.77947 0.17941,-1.57963 0,-0.72429 -0.20005,-1.08988 -0.20004,-0.3656 -0.59325,-0.3656 -0.33111,0 -0.4897,0.25524 -0.16555,0.24832 -0.25525,1.00019 l -0.055,0.43458 q -0.20692,1.64862 -0.76568,2.31082 -0.55868,0.66221 -1.69684,0.66221 -1.22787,0 -1.82112,-0.84156 -0.59325,-0.84155 -0.59325,-2.57984 0,-0.6829 0.10355,-1.43477 0.10346,-0.75188 0.32415,-1.63483 z"
         style="font-style:normal;font-variant:normal;font-weight:bold;font-stretch:normal;font-size:medium;line-height:125%;font-family:sans-serif;-inkscape-font-specification:'sans-serif Bold';letter-spacing:0px;word-spacing:0px;fill:#000000;fill-opacity:1;stroke:none;stroke-width:1px;stroke-linecap:butt;stroke-linejoin:miter;stroke-opacity:1"
         id="path9849"
         inkscape:connector-curvature="0" />
      <path
         d="m -29.18596,70.67666 h 2.19351 v -2.54535 h 1.7659 v 2.54535 h 3.27654 q 0.53804,0 0.7312,-0.21383 0.1862,-0.21384 0.1862,-0.84846 v -1.26922 h 1.7659 v 2.11768 q 0,1.46237 -0.60701,2.07628 -0.61398,0.60703 -2.07629,0.60703 h -3.27654 v 1.22784 h -1.7659 v -1.22784 h -2.19351 z"
         style="font-style:normal;font-variant:normal;font-weight:bold;font-stretch:normal;font-size:medium;line-height:125%;font-family:sans-serif;-inkscape-font-specification:'sans-serif Bold';letter-spacing:0px;word-spacing:0px;fill:#000000;fill-opacity:1;stroke:none;stroke-width:1px;stroke-linecap:butt;stroke-linejoin:miter;stroke-opacity:1"
         id="path9851"
         inkscape:connector-curvature="0" />
      <path
         d="m -20.38415,59.23292 h 4.05599 v 2.46948 h -10.66429 v -2.46948 h 1.13128 q -0.67598,-0.51044 -0.99334,-1.13127 -0.32423,-0.62081 -0.32423,-1.42788 0,-1.42787 1.13826,-2.3453 1.13119,-0.91744 2.91782,-0.91744 1.78654,0 2.92471,0.91744 1.13128,0.91743 1.13128,2.3453 0,0.80707 -0.31735,1.42788 -0.32414,0.62083 -1.00013,1.13127 z m -5.00108,-1.64171 q 0,0.79327 0.58637,1.22093 0.5794,0.42078 1.6762,0.42078 1.09671,0 1.68308,-0.42078 0.5794,-0.42766 0.5794,-1.22093 0,-0.79327 -0.5794,-1.20715 -0.5794,-0.42078 -1.68308,-0.42078 -1.10368,0 -1.68317,0.42078 -0.5794,0.41388 -0.5794,1.20715 z"
         style="font-style:normal;font-variant:normal;font-weight:bold;font-stretch:normal;font-size:medium;line-height:125%;font-family:sans-serif;-inkscape-font-specification:'sans-serif Bold';letter-spacing:0px;word-spacing:0px;fill:#000000;fill-opacity:1;stroke:none;stroke-width:1px;stroke-linecap:butt;stroke-linejoin:miter;stroke-opacity:1"
         id="path9853"
         inkscape:connector-curvature="0" />
      <path
         d="m -24.88856,45.83706 q -0.1518,0.3242 -0.22077,0.6484 -0.0761,0.31731 -0.0761,0.64151 0,0.95193 0.61389,1.46927 0.6071,0.51045 1.74526,0.51045 h 3.55932 v 2.46948 h -7.72574 v -2.46948 h 1.26923 q -0.7588,-0.47595 -1.10367,-1.08988 -0.35185,-0.62081 -0.35185,-1.48306 0,-0.12416 0.0138,-0.26902 0.009,-0.14486 0.0413,-0.42078 l 2.23496,-0.007 z"
         style="font-style:normal;font-variant:normal;font-weight:bold;font-stretch:normal;font-size:medium;line-height:125%;font-family:sans-serif;-inkscape-font-specification:'sans-serif Bold';letter-spacing:0px;word-spacing:0px;fill:#000000;fill-opacity:1;stroke:none;stroke-width:1px;stroke-linecap:butt;stroke-linejoin:miter;stroke-opacity:1"
         id="path9855"
         inkscape:connector-curvature="0" />
      <path
         d="m -23.15027,36.88348 h 0.7036 v 5.77361 q 0.86914,-0.0897 1.30372,-0.62772 0.43457,-0.53804 0.43457,-1.50375 0,-0.77948 -0.22765,-1.59344 -0.23453,-0.82086 -0.70359,-1.6831 h 1.90385 q 0.33111,0.87604 0.49667,1.75208 0.17243,0.87604 0.17243,1.75209 0,2.09698 -1.06231,3.26274 -1.06919,1.15886 -2.99368,1.15886 -1.89009,0 -2.97304,-1.13817 -1.08304,-1.14506 -1.08304,-3.14547 0,-1.82107 1.0968,-2.91095 1.0968,-1.09678 2.93167,-1.09678 z m -0.8209,2.53846 q -0.70359,0 -1.13119,0.41388 -0.43458,0.40698 -0.43458,1.06918 0,0.71739 0.40697,1.16576 0.40009,0.44836 1.1588,0.55873 z"
         style="font-style:normal;font-variant:normal;font-weight:bold;font-stretch:normal;font-size:medium;line-height:125%;font-family:sans-serif;-inkscape-font-specification:'sans-serif Bold';letter-spacing:0px;word-spacing:0px;fill:#000000;fill-opacity:1;stroke:none;stroke-width:1px;stroke-linecap:butt;stroke-linejoin:miter;stroke-opacity:1"
         id="path9857"
         inkscape:connector-curvature="0" />
      <path
         d="m -26.99245,35.99364 v -2.46947 l 5.33907,-1.92454 -5.33907,-1.91764 v -2.47637 l 7.72574,3.04201 v 2.7109 z"
         style="font-style:normal;font-variant:normal;font-weight:bold;font-stretch:normal;font-size:medium;line-height:125%;font-family:sans-serif;-inkscape-font-specification:'sans-serif Bold';letter-spacing:0px;word-spacing:0px;fill:#000000;fill-opacity:1;stroke:none;stroke-width:1px;stroke-linecap:butt;stroke-linejoin:miter;stroke-opacity:1"
         id="path9859"
         inkscape:connector-curvature="0" />
      <path
         d="m -26.99245,25.80534 v -2.46948 h 7.72574 v 2.46948 z m -3.00753,0 v -2.46948 h 2.01419 v 2.46948 z"
         style="font-style:normal;font-variant:normal;font-weight:bold;font-stretch:normal;font-size:medium;line-height:125%;font-family:sans-serif;-inkscape-font-specification:'sans-serif Bold';letter-spacing:0px;word-spacing:0px;fill:#000000;fill-opacity:1;stroke:none;stroke-width:1px;stroke-linecap:butt;stroke-linejoin:miter;stroke-opacity:1"
         id="path9861"
         inkscape:connector-curvature="0" />
      <path
         d="m -23.15027,13.23722 h 0.7036 v 5.77361 q 0.86914,-0.0897 1.30372,-0.62772 0.43457,-0.53805 0.43457,-1.50376 0,-0.77947 -0.22765,-1.59344 -0.23453,-0.82085 -0.70359,-1.6831 h 1.90385 q 0.33111,0.87604 0.49667,1.75208 0.17243,0.87605 0.17243,1.75209 0,2.09698 -1.06231,3.26275 -1.06919,1.15885 -2.99368,1.15885 -1.89009,0 -2.97304,-1.13816 -1.08304,-1.14506 -1.08304,-3.14548 0,-1.82106 1.0968,-2.91094 1.0968,-1.09678 2.93167,-1.09678 z m -0.8209,2.53845 q -0.70359,0 -1.13119,0.41389 -0.43458,0.40697 -0.43458,1.06918 0,0.71738 0.40697,1.16575 0.40009,0.44837 1.1588,0.55874 z"
         style="font-style:normal;font-variant:normal;font-weight:bold;font-stretch:normal;font-size:medium;line-height:125%;font-family:sans-serif;-inkscape-font-specification:'sans-serif Bold';letter-spacing:0px;word-spacing:0px;fill:#000000;fill-opacity:1;stroke:none;stroke-width:1px;stroke-linecap:butt;stroke-linejoin:miter;stroke-opacity:1"
         id="path9863"
         inkscape:connector-curvature="0" />
      <path
         d="M -26.99245,12.06456 V 9.664065 l 5.32522,-1.29682 -5.32522,-1.303718 V 5.001033 l 5.2701,-1.29682 -5.2701,-1.303717 V 1.267492e-7 L -19.26671,2.034903 v 2.697109 l -5.31147,1.303717 5.31147,1.296819 v 2.697112 z"
         style="font-style:normal;font-variant:normal;font-weight:bold;font-stretch:normal;font-size:medium;line-height:125%;font-family:sans-serif;-inkscape-font-specification:'sans-serif Bold';letter-spacing:0px;word-spacing:0px;fill:#000000;fill-opacity:1;stroke:none;stroke-width:1px;stroke-linecap:butt;stroke-linejoin:miter;stroke-opacity:1"
         id="path9865"
         inkscape:connector-curvature="0" />
    </g>
    <g
       inkscape:label="Helper Layer (don't use)"
       clip-path="url(#patternClipPath)"
       id="fullPattern"
       style="display:inline">
      <g
         inkscape:groupmode="layer"
         id="designBottom"
         inkscape:label="Pattern Background"
         transform="scale(6.4, 6.4)">
        <rect
           y="0"
           x="0"
           height="100"
           width="100"
           id="rect9111"
           style="color:#000000;display:inline;overflow:visible;visibility:visible;fill:url(#radialGradient3070);fill-opacity:1;fill-rule:nonzero;stroke:none;stroke-width:0;marker:none;enable-background:accumulate"
           inkscape:export-filename="reindeer-bg.svg"
           inkscape:export-xdpi="108"
           inkscape:export-ydpi="108" />
      </g>
      <g
         inkscape:groupmode="layer"
         id="designTop"
         inkscape:label="Pattern Foreground"
         transform="scale(6.4, 6.4)">
        <g
           id="g53"
           transform="matrix(0.00682517,0,0,0.00682517,36.407272,-13.191452)"
           style="fill:#ffffff;fill-opacity:1">
	<path
   d="m 3975.3,4907.157 c -33.01,-104.305 -58.08,-153.451 -128.196,-223.84 -55.955,-58.138 -107.553,56.371 -103.476,75.435 -26.037,-19.441 -22.349,9.616 -63.207,-52.498 -4.24,-6.942 -11.699,-12.546 -11.875,-21.278 -5.789,-44.839 9.358,-101.505 -60.156,-126.957 -173.368,-63.249 -92.005,-299.163 -92.699,-534.881 57.064,-209.156 -366.711,30.02 -427.165,29.07 0.595,-12.737 0.74,-25.47 -0.54,-38.132 -4.824,-131.769 36.568,-196.723 28.409,-355.365 l -17.302,-138.638 c 22.433,6.037 41.281,21.604 64.518,24.967 78.626,13.802 197.08,-47.861 234.151,-78.176 52.431,-52.972 25.265,-20.05 55.075,-72.532 5.301,-9.961 -1.029,-24.111 -12.829,-24.613 -21.75,1.922 -72.694,16.883 -138.987,-3.933 -156.567,-53.537 -108.461,-56.89 -218.74,1.627 -104.008,-360.64 -682.493,-342.207 -958.107,-729.762 3.875,-156.25 -96.289,-353.006 -226.227,-320.361 -67.234,-119.119 -73.447,-267.836 -72.409,-270.932 6.841,-21.674 16.647,-42.315 22.963,-64.148 1.541,-0.01 4.624,-0.019 6.145,-0.026 10.312,119.032 -5.268,150.007 26.215,148.445 74.775,-52.993 118.198,-381.267 23.712,-674.724 -1.846,-17.635 10.004,-34.032 5.698,-51.693 71.118,11.889 36.953,30.358 145.496,40.462 35.286,2.723 68.957,-11.3 99.199,-28.055 73.609,-43.107 71.006,-65.412 88.375,-79.974 26.878,-24.977 59.722,-42.582 85.863,-68.505 0.137,-5.639 0.305,-11.306 0.5,-16.913 -17.309,-24.119 -163.719,-139.549 -344.54,-97.994 -119.781,22.563 -117.754,11.227 -146.864,-10.202 -3.55,-3.776 -6.699,-7.889 -9.436,-12.317 275.227,-29.416 245.591,53.473 526.483,-88.31 45.183,-24.798 141.22,-62.299 275.453,-243.405 204.639,-275.476 182.011,-236.962 220.592,-317.405 19.383,-39.868 51.236,-122.206 12.491,-142.521 -56.485,-38.095 -194.615,91.304 -251.782,98.543 -24.241,-104.109 -17.847,-204.688 -93.529,-269.568 -37.846,-35.743 -74.869,-33.723 -105.738,21.303 -47.002,77.128 49.833,200.497 38.126,281.872 -3.601,17.733 -13.643,15.93 -27.547,4.581 -20.879,-17.058 -84.272,-47.186 -142.827,-57.89 -100.612,-18.404 -117.788,18.519 -100.06,55.852 44.745,94.328 153.798,71.223 237.227,161.257 185.521,189.212 -359.5,518.337 -660.583,279.086 140.562,-151.236 151.348,-211.922 134.381,-331.502 -12.066,-77.678 -49.042,-130.041 -48.694,-177.227 9.416,-67.913 76.242,-156.905 76.428,-257.34 -20.446,-108.49 -173.117,48.458 -179.45,53.02 -6.415,-24.609 -4.086,-44.88 -40.491,-109.56 -26.847,-44.394 -84.721,-113.196 -127.556,-84.863 -55.397,37.62 -18.052,197.17 -3.509,266.39 -54.086,-7.32 -174.959,-5.836 -220.734,22.9 -12.506,7.698 -22.911,23.695 -16.543,38.486 7.771,19.863 27.219,31.439 44.504,42.199 76.216,47.019 207.94,31.997 310.069,74.467 28.992,12.199 46.458,39.826 61.821,65.798 50.099,87.442 33.915,142.29 -23.89,227.655 -17.99,23.767 -36.893,47.301 -60.626,65.594 -3.945,3.504 -7.092,-1.799 -9.74,-4.173 -52.483,-59.578 -50.468,-52.513 -98.364,-146.302 -10.038,-18.582 -19.075,-38.579 -35.354,-52.656 -19.425,-17.379 -67.763,-24.6 -80.201,8.956 -19.818,51.18 5.609,134.788 -29.374,165.506 -41.077,33.857 -122.572,-43.354 -177.024,34.283 -62.892,-35.697 -94.183,-162.876 -148.817,-219.017 -48.471,-51.523 -129.335,14.785 -50.405,167.473 8.574,17.22 23.816,32.921 23.042,53.347 -3.027,45.432 -134.633,-7.413 -180.294,43.955 -12.957,15.157 -11.777,38.953 0.428,54.218 82.67,107.461 467.414,102.305 475.96,102.883 -0.467,6.488 -7.59,6.469 -12.235,8.538 -117.698,41.167 -111.401,132.473 -178.031,148.227 -55.037,9.835 -137.1,35.717 -188.453,53.236 -33.32,12.034 -114.762,37.588 -155.176,100.046 -19.964,31.012 -20.969,73.243 -1.799,104.811 18.155,15.633 16.213,-6.668 34.428,51.373 16.018,49.319 40.996,53.273 60.942,68.919 11.422,8.444 37.675,38.899 75.164,40.468 93.883,3.859 164.024,5.318 217.701,5.781 -1.229,11.984 -2.099,23.991 -2.599,36.031 -25.003,145.115 -89.239,156.46 -228.26,255.9 -50.249,35.768 -14.003,20.174 -204.994,143.523 -22.011,13.98 -40.475,32.688 -57.508,52.225 -44.146,51.561 -56.344,84.225 -58.626,161.332 -0.645,9.864 -1.208,19.97 2.061,29.52 4.745,2.507 9.499,5.054 14.274,7.593 20.058,-9.035 32.421,-28.966 52.103,-38.435 -8.588,26.727 -13.828,39.251 -33.056,201.329 -1.286,8.74 6.555,13.727 13.067,17.497 -36.911,93.659 -52.922,228.932 -13.662,325.902 -173.172,41.151 -86.453,-36.96 -424.484,306.743 -102.048,-14.44 -141.419,-18.817 -177.371,-6.514 -17.48,5.704 -108.088,117.53 -81.31,219.496 20.958,82.652 11.749,86.483 43.437,139.811 6.467,8.781 3.747,20.203 5.414,30.347 3.595,45.753 34.475,82.133 52.267,122.789 0.647,6.987 -19.575,37.059 58.925,130.686 -18.923,26.416 108.015,273.106 155.844,334.993 1.219,0.913 3.646,2.749 4.856,3.652 l -7.044,1.145 c 25.216,26.346 181.081,101.992 255.66,98.162 2.163,-10.081 8.748,-18.426 11.107,-28.379 18.328,-68.382 4.02,-224.297 -13.292,-271.25 -18.003,-54.371 -102.422,-34.105 -123.127,-26.593 -0.311,-1.972 -0.973,-5.938 -1.295,-7.91 -1.811,0 -5.404,0.021 -7.186,0.049 0.013,-12.967 -12.674,-20.445 -14.082,-32.852 18.372,0.261 36.647,-2.132 54.908,-3.866 2.687,-3.889 5.401,-7.676 8.172,-11.382 -0.308,-41.316 -96.351,-103.075 -141.503,-112.717 -4.297,-1.881 -8.594,-3.762 -12.891,-5.643 58.775,-120.883 39.735,-166.795 39.417,-178.883 2.001,-4.583 6.389,-8.742 5.065,-14.102 -3.823,-14.322 -44.055,-22.391 -51.132,-22.618 8.909,-38.493 -8.216,-75.893 -8.719,-114.234 12.306,10.646 35.679,47.064 60.336,40.43 3.463,-4.042 1.528,-8.792 0.432,-13.223 34.24,-46.383 36.235,-39.039 37.935,-71.97 51.79,11.144 69.337,12.68 107.925,15.196 278.724,47.436 233.804,122.014 393.096,110.996 24.461,-5.91 46.887,-20.596 60.786,-41.514 0.862,-0.381 0.35,0.021 11.02,-13.854 136.828,125.372 331.043,228.623 478.401,292.294 99.077,45.656 510.994,136.046 514.193,136.718 65.026,121.874 49.805,84.11 121.037,185.867 28.818,38.939 71.825,131.767 199.942,249.27 235.478,212.768 319.602,116.125 487.06,101.34 21.101,19.528 51.747,20.188 78.794,21.603 50.884,37.178 113.818,149.043 138.45,207.579 13.952,32.576 14.877,87.452 103.562,218.387 14.135,21.306 31.605,40.228 45.277,61.898 29.304,41.658 56.891,85.488 95.085,119.861 47.758,55.03 184.492,78.246 208.76,59.502 1.09,-2.844 2.012,-5.744 2.785,-8.698 3.067,1.568 6.135,3.126 9.202,4.694 27.525,38.174 91.459,58.928 144.363,51.73 13.196,-1.38 23.959,-10.45 37.28,-11.676 2.337,-9.324 6.19,-18.516 5.909,-28.231 -1.489,-19.824 -4.802,-53.61 -15.836,-72.597 -0.354,-3.604 -0.719,-7.22 -1.073,-10.824 48.855,23.619 98.928,40.177 127.665,27.012 0.771,-1.734 2.351,-5.121 3.151,-6.844 96.389,32.644 116.854,76.424 188.513,53.932 22.329,-33.32 24.149,-77.723 11.536,-115.066 z M 764.528,3104.943 c -47.995,-5.568 -174.475,-8.354 -196.767,-11.554 -0.065,-0.713 -0.215,-2.149 -0.31,-2.863 24.688,-15.258 51.205,-27.33 78.308,-37.55 32.1,-16.93 84.477,-11.329 135.051,54.767 -2.978,7.05 -11.352,-2.177 -16.282,-2.8 z m 2563.578,1627.66 c 6.55,-24.807 29.31,-47.906 -10.081,-95.55 -23.21,-26.496 -53.51,-45.365 -77.613,-70.902 -30.487,-31.293 -143.415,-185.758 -154.76,-267.454 15.238,-8.421 168.58,-52.295 202.386,-29.595 32.749,39.567 15.636,182.607 43.92,283.565 73.084,219.389 94.772,192.549 109.343,228.765 -19.265,-7.075 -82.883,-9.958 -113.195,-48.829 z"
   id="path51"
   style="fill:#ffffff;fill-opacity:1" />

</g>
        <use
           x="0"
           y="0"
           xlink:href="#g53"
           id="use1535"
           transform="translate(-49.749316,45.879885)" />
      </g>
      <g
         id="designBottomGenerator"
         sodipodi:insensitive="true">
        <use
           height="100%"
           width="100%"
           id="bottom1"
           transform="translate(-640, -640)"
           xlink:href="#designBottom"
           y="0"
           x="0" />
        <use
           height="100%"
           width="100%"
           id="bottom2"
           transform="translate(0, -640)"
           xlink:href="#designBottom"
           y="0"
           x="0" />
        <use
           height="100%"
           width="100%"
           id="bottom3"
           transform="translate(640, -640)"
           xlink:href="#designBottom"
           y="0"
           x="0" />
        <use
           height="100%"
           width="100%"
           id="bottom4"
           transform="translate(-640, 0)"
           xlink:href="#designBottom"
           y="0"
           x="0" />
        <use
           height="100%"
           width="100%"
           id="bottom5"
           xlink:href="#designBottom"
           y="0"
           x="0" />
        <use
           height="100%"
           width="100%"
           id="bottom6"
           transform="translate(640, 0)"
           xlink:href="#designBottom"
           y="0"
           x="0" />
        <use
           height="100%"
           width="100%"
           id="bottom7"
           transform="translate(-640, 640)"
           xlink:href="#designBottom"
           y="0"
           x="0" />
        <use
           height="100%"
           width="100%"
           id="bottom8"
           transform="translate(0, 640)"
           xlink:href="#designBottom"
           y="0"
           x="0" />
        <use
           transform="translate(640, 640)"
           height="100%"
           width="100%"
           id="bottom9"
           xlink:href="#designBottom"
           y="0"
           x="0" />
      </g>
      <g
         id="designTopGenerator"
         sodipodi:insensitive="true">
        <use
           height="100%"
           width="100%"
           id="top1"
           transform="translate(-640, -640)"
           xlink:href="#designTop"
           y="0"
           x="0" />
        <use
           height="100%"
           width="100%"
           id="top2"
           transform="translate(0, -640)"
           xlink:href="#designTop"
           y="0"
           x="0" />
        <use
           height="100%"
           width="100%"
           id="top3"
           transform="translate(640, -640)"
           xlink:href="#designTop"
           y="0"
           x="0" />
        <use
           height="100%"
           width="100%"
           id="top4"
           transform="translate(-640, 0)"
           xlink:href="#designTop"
           y="0"
           x="0" />
        <use
           height="100%"
           width="100%"
           id="top5"
           xlink:href="#designTop"
           y="0"
           x="0" />
        <use
           height="100%"
           width="100%"
           id="top6"
           transform="translate(640, 0)"
           xlink:href="#designTop"
           y="0"
           x="0" />
        <use
           height="100%"
           width="100%"
           id="top7"
           transform="translate(-640, 640)"
           xlink:href="#designTop"
           y="0"
           x="0" />
        <use
           height="100%"
           width="100%"
           id="top8"
           transform="translate(0, 640)"
           xlink:href="#designTop"
           y="0"
           x="0" />
        <use
           transform="translate(640, 640)"
           height="100%"
           width="100%"
           id="top9"
           xlink:href="#designTop"
           y="0"
           x="0" />
      </g>
    </g>
  </g>
  <inkscape:_templateinfo
     id="_templateinfo10">
    <inkscape:_name
       id="_name12">Seamless Pattern</inkscape:_name>
    <inkscape:_shortdesc
       id="_shortdesc14">Seamless Pattern</inkscape:_shortdesc>
    <inkscape:_keywords
       id="_keywords16">Seamless Pattern</inkscape:_keywords>
  </inkscape:_templateinfo>
</svg>
